<svg width="29" height="29" viewBox="0 0 29 29" fill="none" xmlns="http://www.w3.org/2000/svg">
<path d="M14.9 0.599976C7.1678 0.599976 0.900002 6.86778 0.900002 14.6C0.900002 16.3808 1.26679 18.1854 1.90659 19.8066L3 22.0368C3.693 23.4774 3.44941 24.8354 2.51841 26.5C2.00461 27.4212 2.6458 28.5314 3.7 28.5566C5.1238 28.5888 7.4898 28.1352 9.3 27.4632C10.9716 28.2346 13.0352 28.6 14.9 28.6C22.6322 28.6 28.9 22.3322 28.9 14.6C28.9 6.86778 22.6322 0.599976 14.9 0.599976ZM14.9 3.39998C21.0852 3.39998 26.1 8.41478 26.1 14.6C26.1 20.7852 21.0852 25.8 14.9 25.8C13.29 25.8 11.267 25.3856 10 24.7066C9.6248 24.505 9.1656 24.4518 8.775 24.6184C7.8818 25.0006 6.98019 25.2876 5.93159 25.4934C6.35159 24.022 6.22701 22.3378 5.49341 20.8132L4.44341 18.6684C3.97721 17.4756 3.7 16.028 3.7 14.6C3.7 8.41478 8.7148 3.39998 14.9 3.39998ZM9.3 13.2C8.5272 13.2 7.9 13.8272 7.9 14.6C7.9 15.3728 8.5272 16 9.3 16C10.0728 16 10.7 15.3728 10.7 14.6C10.7 13.8272 10.0728 13.2 9.3 13.2ZM14.9 13.2C14.1272 13.2 13.5 13.8272 13.5 14.6C13.5 15.3728 14.1272 16 14.9 16C15.6728 16 16.3 15.3728 16.3 14.6C16.3 13.8272 15.6728 13.2 14.9 13.2ZM20.5 13.2C19.7272 13.2 19.1 13.8272 19.1 14.6C19.1 15.3728 19.7272 16 20.5 16C21.2728 16 21.9 15.3728 21.9 14.6C21.9 13.8272 21.2728 13.2 20.5 13.2Z" fill="#0077B6"/>
</svg>
