<svg width="32" height="32" viewBox="0 0 32 32" fill="none" xmlns="http://www.w3.org/2000/svg">
<path d="M16.0378 2.66516C15.4858 2.66516 14.9271 2.9725 14.7458 3.62357L14.2884 5.33183H9.3711C7.16177 5.33183 5.37111 7.12263 5.37111 9.33183V18.6652C5.37111 20.8745 7.16177 22.6652 9.3711 22.6652H9.45379L8.07911 27.6238C7.88178 28.3332 8.2871 29.0932 8.99643 29.2905C9.70576 29.4878 10.4658 29.0825 10.6631 28.3732L12.2458 22.6652H14.7044V26.6652C14.7044 27.4012 15.3018 27.9985 16.0378 27.9985C16.7738 27.9985 17.3711 27.4012 17.3711 26.6652V22.6652H19.8298L21.4124 28.3732C21.6098 29.0825 22.3698 29.4878 23.0791 29.2905C23.7884 29.0932 24.1938 28.3332 23.9964 27.6238L22.6218 22.6652H22.7044C24.9138 22.6652 26.7044 20.8745 26.7044 18.6652V9.33183C26.7044 7.12263 24.9138 5.33183 22.7044 5.33183H17.7871L17.3298 3.62357C17.1484 2.9725 16.5898 2.66516 16.0378 2.66516ZM9.3711 7.9985H22.7044C23.4404 7.9985 24.0378 8.59543 24.0378 9.33183V18.6652C24.0378 19.4012 23.4404 19.9985 22.7044 19.9985H16.0378H9.3711C8.63511 19.9985 8.03777 19.4012 8.03777 18.6652V9.33183C8.03777 8.59543 8.63511 7.9985 9.3711 7.9985Z" fill="#0077B6"/>
</svg>
