<svg width="27" height="20" viewBox="0 0 27 20" fill="none" xmlns="http://www.w3.org/2000/svg">
<path d="M16.7817 7.54315C22.2303 10.0128 22.5604 19.1248 16.6849 19.8233C15.6374 19.9478 14.4781 20 13.209 20C12.5582 20 11.9472 19.9834 11.3734 19.9485C4.99382 19.5602 4.54282 8.86953 10.6729 7.22325C11.3509 7.04117 12.1837 6.94482 13.2483 6.94482C14.8255 6.94482 15.9232 7.15402 16.7817 7.54315Z" fill="#D3D3D3"/>
<ellipse cx="2.87204" cy="3.23753" rx="2.87204" ry="3.23753" transform="matrix(1 0 0.0222566 0.999752 0.128906 5.78906)" fill="#D3D3D3"/>
<ellipse cx="3.01507" cy="3.32854" rx="3.01507" ry="3.32854" transform="matrix(1 0 0.0222566 0.999752 6.0791 0)" fill="#D3D3D3"/>
<ellipse cx="3.01507" cy="3.32854" rx="3.01507" ry="3.32854" transform="matrix(1 0 0.0222566 0.999752 14.4543 0)" fill="#D3D3D3"/>
<ellipse cx="3.03517" cy="3.3831" rx="3.03517" ry="3.3831" transform="matrix(1 0 0.0222566 0.999752 20.6067 5.49805)" fill="#D3D3D3"/>
</svg>
