<svg width="33" height="29" viewBox="0 0 33 29" fill="none" xmlns="http://www.w3.org/2000/svg">
<path d="M18.6415 10.894C24.617 11.1751 28.2914 19.5199 23.09 22.3404C22.1627 22.8433 21.1048 23.3203 19.9255 23.7893C19.3208 24.0298 18.7469 24.2402 18.2009 24.4198C12.1295 26.4168 7.75931 16.6498 12.8469 12.8544C13.4096 12.4347 14.1479 12.0374 15.1371 11.6439C16.6026 11.061 17.6999 10.8497 18.6415 10.894Z" fill="#90E0EF"/>
<ellipse cx="2.87204" cy="3.23753" rx="2.87204" ry="3.23753" transform="matrix(0.929197 -0.369585 0.390174 0.920741 2.51929 15.4187)" fill="#90E0EF"/>
<ellipse cx="3.01507" cy="3.32854" rx="3.01507" ry="3.32854" transform="matrix(0.929197 -0.369585 0.390174 0.920741 5.90859 7.84045)" fill="#90E0EF"/>
<ellipse cx="3.01507" cy="3.32854" rx="3.01507" ry="3.32854" transform="matrix(0.929197 -0.369585 0.390174 0.920741 13.6909 4.74512)" fill="#90E0EF"/>
<ellipse cx="3.03517" cy="3.3831" rx="3.03517" ry="3.3831" transform="matrix(0.929197 -0.369585 0.390174 0.920741 21.4398 7.57996)" fill="#90E0EF"/>
</svg>
