<svg width="20" height="20" viewBox="0 0 20 20" fill="none" xmlns="http://www.w3.org/2000/svg">
<path d="M8.48831 0.494263C4.07001 0.494263 0.488412 4.07626 0.488312 8.49427C0.488312 12.9123 4.07001 16.4943 8.48831 16.4943C10.325 16.4943 12.0487 15.8453 13.3991 14.8043L17.7695 19.2133C18.1601 19.6033 18.8165 19.6033 19.2071 19.2133C19.5976 18.8223 19.5976 18.1663 19.2071 17.7753L14.8011 13.3993C15.8419 12.0493 16.4883 10.3313 16.4883 8.49427C16.4883 4.07626 12.9066 0.494263 8.48831 0.494263ZM8.48831 2.49426C11.802 2.49426 14.4882 5.18027 14.4883 8.49427C14.4883 11.8083 11.802 14.4943 8.48831 14.4943C5.17461 14.4943 2.48841 11.8083 2.48831 8.49427C2.48831 5.18027 5.17461 2.49426 8.48831 2.49426Z" fill="#0077B6"/>
</svg>
