<svg width="29" height="29" viewBox="0 0 29 29" fill="none" xmlns="http://www.w3.org/2000/svg">
<path d="M18.4821 3.81799C15.5825 3.81799 13.2321 6.16883 13.2321 9.06799C13.2321 11.9672 15.5825 14.318 18.4821 14.318C21.3816 14.318 23.7321 11.9672 23.7321 9.06799C23.7321 6.16883 21.3816 3.81799 18.4821 3.81799ZM9.73206 4.98466C7.15477 4.98466 5.06539 7.07416 5.06539 9.65133C5.06539 12.2285 7.15477 14.318 9.73206 14.318C10.6997 14.318 11.6162 14.0228 12.3935 13.4792C12.9216 13.1105 13.0543 12.3673 12.6851 11.8388C12.316 11.3103 11.6091 11.2147 11.081 11.5833C10.6926 11.8552 10.2176 11.9847 9.73206 11.9847C8.44336 11.9847 7.39872 10.9405 7.39872 9.65133C7.39872 8.36216 8.44336 7.31799 9.73206 7.31799C10.1126 7.31799 10.4608 7.40199 10.7893 7.57349C11.361 7.87099 12.0962 7.67034 12.3935 7.09867C12.6908 6.52817 12.4547 5.79198 11.8832 5.49565C11.2239 5.15265 10.4897 4.98466 9.73206 4.98466ZM18.4821 6.15133C20.0929 6.15133 21.3987 7.45683 21.3987 9.06799C21.3987 10.6792 20.0929 11.9847 18.4821 11.9847C16.8712 11.9847 15.5654 10.6792 15.5654 9.06799C15.5654 7.45683 16.8712 6.15133 18.4821 6.15133ZM6.30497 15.886C4.16519 16.7692 2.73206 18.9333 2.73206 21.318V23.6513C2.73206 24.2953 3.25437 24.818 3.89872 24.818H8.56539C9.20974 24.818 9.73206 24.2953 9.73206 23.6513C9.73206 23.0073 9.20974 22.4847 8.56539 22.4847H5.06539V21.318C5.06539 20.0067 5.8432 18.8027 6.73722 18.273C7.57804 18.6277 8.46751 18.896 9.25851 18.9625C9.90064 19.0173 10.4797 18.5332 10.5341 17.8903C10.5886 17.2487 10.1246 16.705 9.48262 16.6502C8.97046 16.607 8.41069 16.453 7.76331 16.1777C7.60697 16.1112 7.5162 16.0587 7.21649 15.9222C6.92261 15.788 6.60341 15.7623 6.30497 15.886ZM14.4716 15.886C12.3319 16.7692 10.8987 18.9333 10.8987 21.318V23.6513C10.8987 24.2953 11.421 24.818 12.0654 24.818H24.8987C25.5431 24.818 26.0654 24.2953 26.0654 23.6513V21.318C26.0654 18.9893 24.6243 16.8777 22.4925 15.9583C22.1924 15.8288 21.8428 15.8253 21.5446 15.9583C20.5123 16.4215 19.5066 16.6513 18.4821 16.6513C17.461 16.6513 16.4518 16.4087 15.3832 15.9222C15.0893 15.788 14.7701 15.7623 14.4716 15.886ZM14.9202 18.273C16.0225 18.6907 17.3514 18.9847 18.4821 18.9847C19.6038 18.9847 20.8778 18.7105 21.9578 18.3115C23.0108 18.9111 23.7321 20.0335 23.7321 21.318V22.4847H13.2321V21.318C13.2321 19.9588 13.9973 18.8132 14.9202 18.273Z" fill="#0077B6"/>
</svg>
